<svg xmlns="http://www.w3.org/2000/svg" xmlns:xlink="http://www.w3.org/1999/xlink" width="1000" zoomAndPan="magnify" viewBox="0 0 750 299.999988" height="400" preserveAspectRatio="xMidYMid meet" version="1.0"><defs><clipPath id="34106a4bf3"><path d="M 26 109.265625 L 242.933594 109.265625 L 242.933594 271.582031 L 26 271.582031 Z M 26 109.265625 " clip-rule="nonzero"/></clipPath><clipPath id="ca232534bb"><path d="M -178.941406 -30.546875 L 359.835938 -117.539062 L 446.828125 421.238281 L -91.949219 508.234375 Z M -178.941406 -30.546875 " clip-rule="nonzero"/></clipPath><clipPath id="1284c305f5"><path d="M 134.25 126.417969 C 130.550781 126.761719 126.8125 127.234375 123.050781 127.84375 C 119.070312 128.484375 115.167969 129.261719 111.34375 130.164062 C 103.449219 123.917969 92.421875 120.886719 80.910156 122.75 C 60.679688 126.011719 46.621094 143.136719 49.503906 160.988281 C 49.53125 161.132812 49.554688 161.28125 49.582031 161.429688 C 32.550781 177.273438 23.597656 196.660156 26.714844 215.957031 C 33.023438 255.011719 86.378906 278.882812 145.890625 269.269531 C 205.402344 259.660156 248.535156 220.210938 242.230469 181.15625 C 239.078125 161.636719 224.171875 145.910156 202.625 136.257812 C 199.738281 118.40625 181.003906 106.582031 160.773438 109.847656 C 149.285156 111.703125 139.785156 118.027344 134.25 126.417969 " clip-rule="nonzero"/></clipPath><clipPath id="d320d2dd42"><path d="M 266.78125 102.167969 L 248.96875 305.175781 L 0.28125 283.355469 L 18.09375 80.339844 Z M 266.78125 102.167969 " clip-rule="nonzero"/></clipPath><clipPath id="78f409ed3a"><path d="M 27.5625 90.367188 L 257.066406 110.503906 L 241.273438 290.480469 L 11.769531 270.339844 Z M 27.5625 90.367188 " clip-rule="nonzero"/></clipPath><linearGradient x1="1696.109738" gradientTransform="matrix(-35.338305, 402.714764, 402.714764, 35.338305, -904760.963795, -767612.989315)" y1="2395.8401" x2="1696.556641" gradientUnits="userSpaceOnUse" y2="2395.8401" id="b04051d363"><stop stop-opacity="1" stop-color="rgb(100%, 56.079102%, 14.898682%)" offset="0"/><stop stop-opacity="1" stop-color="rgb(100%, 56.079102%, 14.898682%)" offset="0.125"/><stop stop-opacity="1" stop-color="rgb(100%, 56.274414%, 14.898682%)" offset="0.140625"/><stop stop-opacity="1" stop-color="rgb(100%, 56.658936%, 14.898682%)" offset="0.148438"/><stop stop-opacity="1" stop-color="rgb(100%, 57.040405%, 14.898682%)" offset="0.15625"/><stop stop-opacity="1" stop-color="rgb(100%, 57.426453%, 14.898682%)" offset="0.164062"/><stop stop-opacity="1" stop-color="rgb(100%, 57.635498%, 14.898682%)" offset="0.171875"/><stop stop-opacity="1" stop-color="rgb(100%, 57.821655%, 15.071106%)" offset="0.179687"/><stop stop-opacity="1" stop-color="rgb(100%, 58.183289%, 15.266418%)" offset="0.1875"/><stop stop-opacity="1" stop-color="rgb(100%, 58.587646%, 15.289307%)" offset="0.191406"/><stop stop-opacity="1" stop-color="rgb(100%, 58.80127%, 15.289307%)" offset="0.195312"/><stop stop-opacity="1" stop-color="rgb(100%, 58.810425%, 15.289307%)" offset="0.203125"/><stop stop-opacity="1" stop-color="rgb(100%, 59.00116%, 15.289307%)" offset="0.210937"/><stop stop-opacity="1" stop-color="rgb(100%, 59.375%, 15.289307%)" offset="0.21875"/><stop stop-opacity="1" stop-color="rgb(100%, 59.75647%, 15.289307%)" offset="0.226562"/><stop stop-opacity="1" stop-color="rgb(100%, 59.973145%, 15.289307%)" offset="0.234375"/><stop stop-opacity="1" stop-color="rgb(100%, 60.18219%, 15.289307%)" offset="0.242187"/><stop stop-opacity="1" stop-color="rgb(100%, 60.557556%, 15.289307%)" offset="0.25"/><stop stop-opacity="1" stop-color="rgb(100%, 60.942078%, 15.289307%)" offset="0.257812"/><stop stop-opacity="1" stop-color="rgb(100%, 61.157227%, 15.289307%)" offset="0.265625"/><stop stop-opacity="1" stop-color="rgb(100%, 61.367798%, 15.483093%)" offset="0.273438"/><stop stop-opacity="1" stop-color="rgb(100%, 61.747742%, 15.682983%)" offset="0.28125"/><stop stop-opacity="1" stop-color="rgb(100%, 62.124634%, 15.689087%)" offset="0.296875"/><stop stop-opacity="1" stop-color="rgb(100%, 62.506104%, 15.689087%)" offset="0.304688"/><stop stop-opacity="1" stop-color="rgb(100%, 62.892151%, 15.689087%)" offset="0.3125"/><stop stop-opacity="1" stop-color="rgb(100%, 63.110352%, 15.689087%)" offset="0.320312"/><stop stop-opacity="1" stop-color="rgb(100%, 63.320923%, 15.689087%)" offset="0.328125"/><stop stop-opacity="1" stop-color="rgb(100%, 63.693237%, 15.689087%)" offset="0.335938"/><stop stop-opacity="1" stop-color="rgb(100%, 64.074707%, 15.689087%)" offset="0.34375"/><stop stop-opacity="1" stop-color="rgb(100%, 64.286804%, 15.689087%)" offset="0.351562"/><stop stop-opacity="1" stop-color="rgb(100%, 64.500427%, 15.689087%)" offset="0.359375"/><stop stop-opacity="1" stop-color="rgb(100%, 64.883423%, 15.872192%)" offset="0.367187"/><stop stop-opacity="1" stop-color="rgb(100%, 65.266418%, 16.067505%)" offset="0.375"/><stop stop-opacity="1" stop-color="rgb(100%, 65.641785%, 16.079712%)" offset="0.390625"/><stop stop-opacity="1" stop-color="rgb(100%, 66.041565%, 16.079712%)" offset="0.394531"/><stop stop-opacity="1" stop-color="rgb(100%, 66.256714%, 16.079712%)" offset="0.398437"/><stop stop-opacity="1" stop-color="rgb(100%, 66.452026%, 16.079712%)" offset="0.40625"/><stop stop-opacity="1" stop-color="rgb(100%, 66.833496%, 16.079712%)" offset="0.421875"/><stop stop-opacity="1" stop-color="rgb(100%, 67.205811%, 16.079712%)" offset="0.4375"/><stop stop-opacity="1" stop-color="rgb(100%, 67.420959%, 16.079712%)" offset="0.445312"/><stop stop-opacity="1" stop-color="rgb(100%, 67.630005%, 16.079712%)" offset="0.453125"/><stop stop-opacity="1" stop-color="rgb(100%, 68.002319%, 16.079712%)" offset="0.46875"/><stop stop-opacity="1" stop-color="rgb(100%, 68.215942%, 16.079712%)" offset="0.476562"/><stop stop-opacity="1" stop-color="rgb(100%, 68.424988%, 16.079712%)" offset="0.484375"/><stop stop-opacity="1" stop-color="rgb(100%, 68.797302%, 16.079712%)" offset="0.5"/><stop stop-opacity="1" stop-color="rgb(100%, 69.17572%, 16.079712%)" offset="0.507812"/><stop stop-opacity="1" stop-color="rgb(100%, 69.387817%, 16.079712%)" offset="0.515625"/><stop stop-opacity="1" stop-color="rgb(100%, 69.604492%, 16.079712%)" offset="0.53125"/><stop stop-opacity="1" stop-color="rgb(100%, 69.98291%, 16.079712%)" offset="0.539062"/><stop stop-opacity="1" stop-color="rgb(100%, 70.1828%, 16.253662%)" offset="0.546875"/><stop stop-opacity="1" stop-color="rgb(100%, 70.393372%, 16.448975%)" offset="0.5625"/><stop stop-opacity="1" stop-color="rgb(100%, 70.783997%, 16.468811%)" offset="0.578125"/><stop stop-opacity="1" stop-color="rgb(100%, 71.174622%, 16.468811%)" offset="0.59375"/><stop stop-opacity="1" stop-color="rgb(100%, 71.563721%, 16.468811%)" offset="0.609375"/><stop stop-opacity="1" stop-color="rgb(100%, 71.94519%, 16.468811%)" offset="0.617187"/><stop stop-opacity="1" stop-color="rgb(100%, 72.145081%, 16.468811%)" offset="0.625"/><stop stop-opacity="1" stop-color="rgb(100%, 72.354126%, 16.468811%)" offset="0.640625"/><stop stop-opacity="1" stop-color="rgb(100%, 72.743225%, 16.468811%)" offset="0.65625"/><stop stop-opacity="1" stop-color="rgb(100%, 73.117065%, 16.468811%)" offset="0.664062"/><stop stop-opacity="1" stop-color="rgb(100%, 73.490906%, 16.468811%)" offset="0.671875"/><stop stop-opacity="1" stop-color="rgb(100%, 73.707581%, 16.468811%)" offset="0.6875"/><stop stop-opacity="1" stop-color="rgb(100%, 73.924255%, 16.468811%)" offset="0.71875"/><stop stop-opacity="1" stop-color="rgb(100%, 74.313354%, 16.468811%)" offset="0.75"/><stop stop-opacity="1" stop-color="rgb(100%, 74.690247%, 16.468811%)" offset="0.765625"/><stop stop-opacity="1" stop-color="rgb(100%, 74.972534%, 16.555786%)" offset="0.773438"/><stop stop-opacity="1" stop-color="rgb(100%, 75.17395%, 16.743469%)" offset="0.78125"/><stop stop-opacity="1" stop-color="rgb(100%, 75.466919%, 16.851807%)" offset="0.8125"/><stop stop-opacity="1" stop-color="rgb(100%, 75.672913%, 16.859436%)" offset="0.828125"/><stop stop-opacity="1" stop-color="rgb(100%, 75.871277%, 16.859436%)" offset="0.84375"/><stop stop-opacity="1" stop-color="rgb(100%, 76.066589%, 16.859436%)" offset="0.859375"/><stop stop-opacity="1" stop-color="rgb(100%, 76.263428%, 16.859436%)" offset="0.875"/><stop stop-opacity="1" stop-color="rgb(100%, 76.64032%, 16.859436%)" offset="0.890625"/><stop stop-opacity="1" stop-color="rgb(100%, 76.844788%, 16.859436%)" offset="0.90625"/><stop stop-opacity="1" stop-color="rgb(100%, 77.053833%, 16.859436%)" offset="0.9375"/><stop stop-opacity="1" stop-color="rgb(100%, 77.43988%, 16.859436%)" offset="0.953125"/><stop stop-opacity="1" stop-color="rgb(100%, 77.639771%, 16.859436%)" offset="0.96875"/><stop stop-opacity="1" stop-color="rgb(100%, 77.844238%, 16.859436%)" offset="1"/></linearGradient><clipPath id="0dafdce0a9"><path d="M 22.175781 105 L 246.753906 105 L 246.753906 275.578125 L 22.175781 275.578125 Z M 22.175781 105 " clip-rule="nonzero"/></clipPath><clipPath id="8c630b9c57"><path d="M -178.941406 -30.546875 L 359.835938 -117.539062 L 446.828125 421.238281 L -91.949219 508.234375 Z M -178.941406 -30.546875 " clip-rule="nonzero"/></clipPath><clipPath id="0da77243e6"><path d="M -178.941406 -30.546875 L 359.835938 -117.539062 L 446.828125 421.238281 L -91.949219 508.234375 Z M -178.941406 -30.546875 " clip-rule="nonzero"/></clipPath><clipPath id="84859e40f1"><path d="M 26 109.265625 L 242.933594 109.265625 L 242.933594 271.582031 L 26 271.582031 Z M 26 109.265625 " clip-rule="nonzero"/></clipPath><clipPath id="9386799bf1"><path d="M -178.941406 -30.546875 L 359.835938 -117.539062 L 446.828125 421.238281 L -91.949219 508.234375 Z M -178.941406 -30.546875 " clip-rule="nonzero"/></clipPath><clipPath id="be972bb3d4"><path d="M 134.25 126.417969 C 130.550781 126.761719 126.8125 127.234375 123.050781 127.84375 C 119.070312 128.484375 115.167969 129.261719 111.34375 130.164062 C 103.449219 123.917969 92.421875 120.886719 80.910156 122.75 C 60.679688 126.011719 46.621094 143.136719 49.503906 160.988281 C 49.53125 161.132812 49.554688 161.28125 49.582031 161.429688 C 32.550781 177.273438 23.597656 196.660156 26.714844 215.957031 C 33.023438 255.011719 86.378906 278.882812 145.890625 269.269531 C 205.402344 259.660156 248.535156 220.210938 242.230469 181.15625 C 239.078125 161.636719 224.171875 145.910156 202.625 136.257812 C 199.738281 118.40625 181.003906 106.582031 160.773438 109.847656 C 149.285156 111.703125 139.785156 118.027344 134.25 126.417969 " clip-rule="nonzero"/></clipPath><clipPath id="fba115d86e"><path d="M 228.933594 98.84375 L 253.644531 251.871094 L 38.128906 286.671875 L 13.417969 133.644531 Z M 228.933594 98.84375 " clip-rule="nonzero"/></clipPath><clipPath id="2efc3868b1"><path d="M 0.359375 113.386719 L 237.414062 75.109375 L 268.476562 267.453125 L 31.417969 305.738281 Z M 0.359375 113.386719 " clip-rule="nonzero"/></clipPath><linearGradient x1="1695.929822" gradientTransform="matrix(54.419439, 336.998947, 336.998947, -54.419439, -899408.094009, -441077.902377)" y1="2395.3611" x2="1696.500585" gradientUnits="userSpaceOnUse" y2="2395.3611" id="993825e5d8"><stop stop-opacity="1" stop-color="rgb(99.21875%, 50.588989%, 14.898682%)" offset="0"/><stop stop-opacity="1" stop-color="rgb(99.21875%, 50.588989%, 14.898682%)" offset="0.125"/><stop stop-opacity="1" stop-color="rgb(99.21875%, 50.779724%, 14.898682%)" offset="0.15625"/><stop stop-opacity="1" stop-color="rgb(99.21875%, 51.158142%, 14.898682%)" offset="0.1875"/><stop stop-opacity="1" stop-color="rgb(99.21875%, 51.445007%, 14.898682%)" offset="0.195312"/><stop stop-opacity="1" stop-color="rgb(99.21875%, 51.646423%, 14.898682%)" offset="0.203125"/><stop stop-opacity="1" stop-color="rgb(99.21875%, 51.94397%, 14.898682%)" offset="0.21875"/><stop stop-opacity="1" stop-color="rgb(99.21875%, 52.23999%, 14.990234%)" offset="0.226562"/><stop stop-opacity="1" stop-color="rgb(99.21875%, 52.442932%, 15.182495%)" offset="0.234375"/><stop stop-opacity="1" stop-color="rgb(99.21875%, 52.735901%, 15.286255%)" offset="0.25"/><stop stop-opacity="1" stop-color="rgb(99.21875%, 52.932739%, 15.289307%)" offset="0.265625"/><stop stop-opacity="1" stop-color="rgb(99.21875%, 53.129578%, 15.289307%)" offset="0.28125"/><stop stop-opacity="1" stop-color="rgb(99.21875%, 53.517151%, 15.289307%)" offset="0.296875"/><stop stop-opacity="1" stop-color="rgb(99.21875%, 53.894043%, 15.289307%)" offset="0.304688"/><stop stop-opacity="1" stop-color="rgb(99.21875%, 54.098511%, 15.289307%)" offset="0.3125"/><stop stop-opacity="1" stop-color="rgb(99.21875%, 54.307556%, 15.289307%)" offset="0.320312"/><stop stop-opacity="1" stop-color="rgb(99.21875%, 54.685974%, 15.289307%)" offset="0.328125"/><stop stop-opacity="1" stop-color="rgb(99.21875%, 55.062866%, 15.289307%)" offset="0.34375"/><stop stop-opacity="1" stop-color="rgb(99.21875%, 55.44281%, 15.289307%)" offset="0.351562"/><stop stop-opacity="1" stop-color="rgb(99.21875%, 55.662537%, 15.289307%)" offset="0.359375"/><stop stop-opacity="1" stop-color="rgb(99.21875%, 55.874634%, 15.289307%)" offset="0.367188"/><stop stop-opacity="1" stop-color="rgb(99.21875%, 56.25%, 15.289307%)" offset="0.375"/><stop stop-opacity="1" stop-color="rgb(99.21875%, 56.626892%, 15.289307%)" offset="0.390625"/><stop stop-opacity="1" stop-color="rgb(99.21875%, 57.026672%, 15.289307%)" offset="0.394531"/><stop stop-opacity="1" stop-color="rgb(99.21875%, 57.241821%, 15.289307%)" offset="0.398438"/><stop stop-opacity="1" stop-color="rgb(99.21875%, 57.244873%, 15.289307%)" offset="0.40625"/><stop stop-opacity="1" stop-color="rgb(99.21875%, 57.435608%, 15.289307%)" offset="0.414062"/><stop stop-opacity="1" stop-color="rgb(99.21875%, 57.814026%, 15.289307%)" offset="0.421875"/><stop stop-opacity="1" stop-color="rgb(99.21875%, 58.189392%, 15.289307%)" offset="0.4375"/><stop stop-opacity="1" stop-color="rgb(99.026489%, 58.589172%, 15.289307%)" offset="0.441406"/><stop stop-opacity="1" stop-color="rgb(98.835754%, 58.802795%, 15.289307%)" offset="0.445312"/><stop stop-opacity="1" stop-color="rgb(98.826599%, 58.810425%, 15.47699%)" offset="0.453125"/><stop stop-opacity="1" stop-color="rgb(98.81897%, 59.002686%, 15.67688%)" offset="0.460938"/><stop stop-opacity="1" stop-color="rgb(98.81897%, 59.376526%, 15.689087%)" offset="0.46875"/><stop stop-opacity="1" stop-color="rgb(98.81897%, 59.588623%, 15.689087%)" offset="0.476562"/><stop stop-opacity="1" stop-color="rgb(98.81897%, 59.797668%, 15.689087%)" offset="0.484375"/><stop stop-opacity="1" stop-color="rgb(98.81897%, 60.177612%, 15.689087%)" offset="0.492188"/><stop stop-opacity="1" stop-color="rgb(98.81897%, 60.379028%, 15.689087%)" offset="0.5"/><stop stop-opacity="1" stop-color="rgb(98.81897%, 60.565186%, 15.689087%)" offset="0.507812"/><stop stop-opacity="1" stop-color="rgb(98.81897%, 60.934448%, 15.689087%)" offset="0.515625"/><stop stop-opacity="1" stop-color="rgb(98.81897%, 61.154175%, 15.689087%)" offset="0.523438"/><stop stop-opacity="1" stop-color="rgb(98.81897%, 61.364746%, 15.689087%)" offset="0.53125"/><stop stop-opacity="1" stop-color="rgb(98.81897%, 61.737061%, 15.689087%)" offset="0.546875"/><stop stop-opacity="1" stop-color="rgb(98.81897%, 62.112427%, 15.689087%)" offset="0.554688"/><stop stop-opacity="1" stop-color="rgb(98.81897%, 62.32605%, 15.689087%)" offset="0.5625"/><stop stop-opacity="1" stop-color="rgb(98.81897%, 62.539673%, 15.689087%)" offset="0.570312"/><stop stop-opacity="1" stop-color="rgb(98.81897%, 62.922668%, 15.689087%)" offset="0.578125"/><stop stop-opacity="1" stop-color="rgb(98.81897%, 63.304138%, 15.689087%)" offset="0.585938"/><stop stop-opacity="1" stop-color="rgb(98.81897%, 63.685608%, 15.689087%)" offset="0.59375"/><stop stop-opacity="1" stop-color="rgb(98.81897%, 63.897705%, 15.689087%)" offset="0.601562"/><stop stop-opacity="1" stop-color="rgb(98.81897%, 64.10675%, 15.689087%)" offset="0.609375"/><stop stop-opacity="1" stop-color="rgb(98.81897%, 64.489746%, 15.689087%)" offset="0.613281"/><stop stop-opacity="1" stop-color="rgb(98.81897%, 64.686584%, 15.689087%)" offset="0.617188"/><stop stop-opacity="1" stop-color="rgb(98.81897%, 64.877319%, 15.689087%)" offset="0.625"/><stop stop-opacity="1" stop-color="rgb(98.81897%, 65.258789%, 15.689087%)" offset="0.632812"/><stop stop-opacity="1" stop-color="rgb(98.81897%, 65.638733%, 15.858459%)" offset="0.640625"/><stop stop-opacity="1" stop-color="rgb(98.81897%, 66.043091%, 16.053772%)" offset="0.644531"/><stop stop-opacity="1" stop-color="rgb(98.81897%, 66.25824%, 16.079712%)" offset="0.648438"/><stop stop-opacity="1" stop-color="rgb(98.81897%, 66.453552%, 16.079712%)" offset="0.65625"/><stop stop-opacity="1" stop-color="rgb(98.63739%, 66.8396%, 16.079712%)" offset="0.664062"/><stop stop-opacity="1" stop-color="rgb(98.443604%, 67.044067%, 16.079712%)" offset="0.671875"/><stop stop-opacity="1" stop-color="rgb(98.429871%, 67.230225%, 16.079712%)" offset="0.679688"/><stop stop-opacity="1" stop-color="rgb(98.429871%, 67.591858%, 16.079712%)" offset="0.6875"/><stop stop-opacity="1" stop-color="rgb(98.429871%, 68.000793%, 16.079712%)" offset="0.691406"/><stop stop-opacity="1" stop-color="rgb(98.429871%, 68.218994%, 16.079712%)" offset="0.695312"/><stop stop-opacity="1" stop-color="rgb(98.429871%, 68.411255%, 16.079712%)" offset="0.703125"/><stop stop-opacity="1" stop-color="rgb(98.429871%, 68.792725%, 16.079712%)" offset="0.710938"/><stop stop-opacity="1" stop-color="rgb(98.429871%, 69.174194%, 16.079712%)" offset="0.71875"/><stop stop-opacity="1" stop-color="rgb(98.429871%, 69.555664%, 16.079712%)" offset="0.726562"/><stop stop-opacity="1" stop-color="rgb(98.429871%, 69.9646%, 16.079712%)" offset="0.730469"/><stop stop-opacity="1" stop-color="rgb(98.429871%, 70.1828%, 16.079712%)" offset="0.734375"/><stop stop-opacity="1" stop-color="rgb(98.429871%, 70.373535%, 16.079712%)" offset="0.742188"/><stop stop-opacity="1" stop-color="rgb(98.429871%, 70.576477%, 16.079712%)" offset="0.75"/><stop stop-opacity="1" stop-color="rgb(98.429871%, 70.762634%, 16.253662%)" offset="0.757812"/><stop stop-opacity="1" stop-color="rgb(98.429871%, 71.127319%, 16.447449%)" offset="0.765625"/><stop stop-opacity="1" stop-color="rgb(98.429871%, 71.531677%, 16.468811%)" offset="0.769531"/><stop stop-opacity="1" stop-color="rgb(98.429871%, 71.746826%, 16.468811%)" offset="0.773438"/><stop stop-opacity="1" stop-color="rgb(98.429871%, 71.942139%, 16.468811%)" offset="0.78125"/><stop stop-opacity="1" stop-color="rgb(98.429871%, 72.328186%, 16.468811%)" offset="0.789062"/><stop stop-opacity="1" stop-color="rgb(98.429871%, 72.709656%, 16.468811%)" offset="0.796875"/><stop stop-opacity="1" stop-color="rgb(98.429871%, 73.0896%, 16.468811%)" offset="0.804688"/><stop stop-opacity="1" stop-color="rgb(98.429871%, 73.474121%, 16.468811%)" offset="0.8125"/><stop stop-opacity="1" stop-color="rgb(98.429871%, 73.883057%, 16.468811%)" offset="0.816406"/><stop stop-opacity="1" stop-color="rgb(98.429871%, 74.098206%, 16.468811%)" offset="0.820312"/><stop stop-opacity="1" stop-color="rgb(98.429871%, 74.108887%, 16.468811%)" offset="0.828125"/><stop stop-opacity="1" stop-color="rgb(98.252869%, 74.295044%, 16.468811%)" offset="0.835938"/><stop stop-opacity="1" stop-color="rgb(98.057556%, 74.662781%, 16.468811%)" offset="0.84375"/><stop stop-opacity="1" stop-color="rgb(98.039246%, 75.04425%, 16.468811%)" offset="0.851562"/><stop stop-opacity="1" stop-color="rgb(98.039246%, 75.453186%, 16.468811%)" offset="0.855469"/><stop stop-opacity="1" stop-color="rgb(98.039246%, 75.671387%, 16.468811%)" offset="0.859375"/><stop stop-opacity="1" stop-color="rgb(98.039246%, 75.862122%, 16.651917%)" offset="0.867188"/><stop stop-opacity="1" stop-color="rgb(98.039246%, 76.245117%, 16.847229%)" offset="0.875"/><stop stop-opacity="1" stop-color="rgb(98.039246%, 76.625061%, 16.859436%)" offset="0.882812"/><stop stop-opacity="1" stop-color="rgb(98.039246%, 77.006531%, 16.859436%)" offset="0.890625"/><stop stop-opacity="1" stop-color="rgb(98.039246%, 77.223206%, 16.859436%)" offset="0.898438"/><stop stop-opacity="1" stop-color="rgb(98.039246%, 77.436829%, 16.859436%)" offset="0.90625"/><stop stop-opacity="1" stop-color="rgb(98.039246%, 77.816772%, 16.859436%)" offset="0.914062"/><stop stop-opacity="1" stop-color="rgb(98.039246%, 78.372192%, 16.859436%)" offset="0.917969"/><stop stop-opacity="1" stop-color="rgb(98.039246%, 78.738403%, 16.859436%)" offset="0.921875"/><stop stop-opacity="1" stop-color="rgb(98.039246%, 78.927612%, 16.859436%)" offset="0.929688"/><stop stop-opacity="1" stop-color="rgb(98.039246%, 79.302979%, 16.859436%)" offset="0.9375"/><stop stop-opacity="1" stop-color="rgb(98.039246%, 79.725647%, 16.859436%)" offset="0.941406"/><stop stop-opacity="1" stop-color="rgb(98.039246%, 79.960632%, 16.859436%)" offset="0.945312"/><stop stop-opacity="1" stop-color="rgb(98.039246%, 80.145264%, 16.859436%)" offset="0.953125"/><stop stop-opacity="1" stop-color="rgb(98.039246%, 80.517578%, 16.859436%)" offset="0.960938"/><stop stop-opacity="1" stop-color="rgb(98.039246%, 80.941772%, 16.859436%)" offset="0.964844"/><stop stop-opacity="1" stop-color="rgb(98.039246%, 81.17981%, 16.859436%)" offset="0.96875"/><stop stop-opacity="1" stop-color="rgb(98.039246%, 81.373596%, 16.859436%)" offset="0.976562"/><stop stop-opacity="1" stop-color="rgb(98.039246%, 81.764221%, 17.036438%)" offset="0.984375"/><stop stop-opacity="1" stop-color="rgb(98.039246%, 82.15332%, 17.23175%)" offset="0.992188"/><stop stop-opacity="1" stop-color="rgb(98.039246%, 82.548523%, 17.248535%)" offset="0.996094"/><stop stop-opacity="1" stop-color="rgb(98.039246%, 82.749939%, 17.248535%)" offset="1"/></linearGradient><clipPath id="73eca8ce37"><path d="M 22.175781 105 L 246.753906 105 L 246.753906 275.578125 L 22.175781 275.578125 Z M 22.175781 105 " clip-rule="nonzero"/></clipPath><clipPath id="05e1169d5a"><path d="M -178.941406 -30.546875 L 359.835938 -117.539062 L 446.828125 421.238281 L -91.949219 508.234375 Z M -178.941406 -30.546875 " clip-rule="nonzero"/></clipPath><clipPath id="c38ca756ef"><path d="M -178.941406 -30.546875 L 359.835938 -117.539062 L 446.828125 421.238281 L -91.949219 508.234375 Z M -178.941406 -30.546875 " clip-rule="nonzero"/></clipPath><clipPath id="f70acd2b4a"><path d="M 58 131 L 116.792969 131 L 116.792969 191 L 58 191 Z M 58 131 " clip-rule="nonzero"/></clipPath><clipPath id="0113fdfd64"><path d="M -178.941406 -30.546875 L 359.835938 -117.539062 L 446.828125 421.238281 L -91.949219 508.234375 Z M -178.941406 -30.546875 " clip-rule="nonzero"/></clipPath><clipPath id="6e5dfe0674"><path d="M -178.941406 -30.546875 L 359.835938 -117.539062 L 446.828125 421.238281 L -91.949219 508.234375 Z M -178.941406 -30.546875 " clip-rule="nonzero"/></clipPath><clipPath id="d7419a8b61"><path d="M 137.3125 118 L 196.59375 118 L 196.59375 178.679688 L 137.3125 178.679688 Z M 137.3125 118 " clip-rule="nonzero"/></clipPath><clipPath id="ea9d3c237c"><path d="M -178.941406 -30.546875 L 359.835938 -117.539062 L 446.828125 421.238281 L -91.949219 508.234375 Z M -178.941406 -30.546875 " clip-rule="nonzero"/></clipPath><clipPath id="d44f293f07"><path d="M -178.941406 -30.546875 L 359.835938 -117.539062 L 446.828125 421.238281 L -91.949219 508.234375 Z M -178.941406 -30.546875 " clip-rule="nonzero"/></clipPath><clipPath id="30ff844e85"><path d="M 142 126.238281 L 160 126.238281 L 160 151 L 142 151 Z M 142 126.238281 " clip-rule="nonzero"/></clipPath><clipPath id="fc4ecdaf08"><path d="M -178.941406 -30.546875 L 359.835938 -117.539062 L 446.828125 421.238281 L -91.949219 508.234375 Z M -178.941406 -30.546875 " clip-rule="nonzero"/></clipPath><clipPath id="7caacac039"><path d="M -178.941406 -30.546875 L 359.835938 -117.539062 L 446.828125 421.238281 L -91.949219 508.234375 Z M -178.941406 -30.546875 " clip-rule="nonzero"/></clipPath><clipPath id="d60497d672"><path d="M 63 139 L 80.3125 139 L 80.3125 163.859375 L 63 163.859375 Z M 63 139 " clip-rule="nonzero"/></clipPath><clipPath id="fe6f84bb00"><path d="M -178.941406 -30.546875 L 359.835938 -117.539062 L 446.828125 421.238281 L -91.949219 508.234375 Z M -178.941406 -30.546875 " clip-rule="nonzero"/></clipPath><clipPath id="f6f43bb13e"><path d="M -178.941406 -30.546875 L 359.835938 -117.539062 L 446.828125 421.238281 L -91.949219 508.234375 Z M -178.941406 -30.546875 " clip-rule="nonzero"/></clipPath><clipPath id="815c4c3d67"><path d="M 74 201 L 198.875 201 L 198.875 235.679688 L 74 235.679688 Z M 74 201 " clip-rule="nonzero"/></clipPath><clipPath id="fe8b4e06db"><path d="M -178.941406 -30.546875 L 359.835938 -117.539062 L 446.828125 421.238281 L -91.949219 508.234375 Z M -178.941406 -30.546875 " clip-rule="nonzero"/></clipPath><clipPath id="ce2fac4a23"><path d="M -178.941406 -30.546875 L 359.835938 -117.539062 L 446.828125 421.238281 L -91.949219 508.234375 Z M -178.941406 -30.546875 " clip-rule="nonzero"/></clipPath><clipPath id="6a13fbc8aa"><path d="M 70.054688 210 L 86 210 L 86 237.960938 L 70.054688 237.960938 Z M 70.054688 210 " clip-rule="nonzero"/></clipPath><clipPath id="a70f9a111e"><path d="M -178.941406 -30.546875 L 359.835938 -117.539062 L 446.828125 421.238281 L -91.949219 508.234375 Z M -178.941406 -30.546875 " clip-rule="nonzero"/></clipPath><clipPath id="dbc7e9b294"><path d="M -178.941406 -30.546875 L 359.835938 -117.539062 L 446.828125 421.238281 L -91.949219 508.234375 Z M -178.941406 -30.546875 " clip-rule="nonzero"/></clipPath><clipPath id="0188878163"><path d="M 185.195312 192.359375 L 205 192.359375 L 205 217 L 185.195312 217 Z M 185.195312 192.359375 " clip-rule="nonzero"/></clipPath><clipPath id="aee26bd51e"><path d="M -178.941406 -30.546875 L 359.835938 -117.539062 L 446.828125 421.238281 L -91.949219 508.234375 Z M -178.941406 -30.546875 " clip-rule="nonzero"/></clipPath><clipPath id="c2622cca12"><path d="M -178.941406 -30.546875 L 359.835938 -117.539062 L 446.828125 421.238281 L -91.949219 508.234375 Z M -178.941406 -30.546875 " clip-rule="nonzero"/></clipPath><clipPath id="8dc3497995"><path d="M 0 22.566406 L 247.894531 22.566406 L 247.894531 211.738281 L 0 211.738281 Z M 0 22.566406 " clip-rule="nonzero"/></clipPath><clipPath id="e325851b5b"><path d="M 0 22.566406 L 247.894531 22.566406 L 247.894531 211.738281 L 0 211.738281 Z M 0 22.566406 " clip-rule="nonzero"/></clipPath><clipPath id="c204dbdaf8"><path d="M 0 22.566406 L 247.894531 22.566406 L 247.894531 211.738281 L 0 211.738281 Z M 0 22.566406 " clip-rule="nonzero"/></clipPath></defs><path fill="#ffffff" d="M 346.367188 140.027344 L 299.945312 145.347656 L 299.945312 123.800781 L 345.28125 115.957031 L 343.726562 81.484375 L 299.945312 86.503906 L 299.945312 64.953125 L 342.644531 57.5625 L 341.152344 24.535156 L 270.417969 32.351562 L 270.417969 184.425781 L 348.367188 184.425781 Z M 346.367188 140.027344 " fill-opacity="1" fill-rule="nonzero"/><path fill="#ffffff" d="M 385.683594 184.425781 L 435.515625 43 L 435.515625 184.425781 L 513.460938 184.425781 L 511.460938 140.027344 L 465.039062 145.347656 L 465.039062 123.800781 L 510.375 115.957031 L 508.820312 81.484375 L 465.039062 86.503906 L 465.039062 64.953125 L 507.742188 57.5625 L 506.246094 24.535156 L 439.417969 31.921875 L 442.238281 23.917969 L 414.601562 27.109375 L 382.375 115.828125 L 365.21875 33.300781 L 344.972656 35.792969 L 374.316406 184.425781 Z M 385.683594 184.425781 " fill-opacity="1" fill-rule="nonzero"/><path fill="#ffffff" d="M 554.167969 99.054688 L 599.789062 102.773438 C 608.871094 46.683594 571.078125 18.582031 520.53125 23.921875 L 520.53125 184.425781 L 547.835938 184.425781 L 547.835938 138.101562 L 582.910156 184.425781 L 625.5 184.425781 C 625.5 184.425781 551.699219 99.824219 554.167969 99.054688 Z M 545.835938 71.351562 L 545.828125 58.566406 C 565.253906 55.488281 568.5625 74.660156 568.5625 74.660156 Z M 545.835938 71.351562 " fill-opacity="1" fill-rule="nonzero"/><path fill="#ffffff" d="M 708.921875 23.917969 L 671.039062 24.535156 L 647.363281 65.9375 L 620.375 24.535156 L 585.988281 24.535156 L 629.726562 104.171875 L 633.480469 184.425781 L 668.453125 184.425781 L 665.769531 104.480469 Z M 708.921875 23.917969 " fill-opacity="1" fill-rule="nonzero"/><path fill="#ffffff" d="M 720.871094 148.816406 C 721.839844 149.78125 722.707031 150.839844 723.46875 151.976562 C 724.226562 153.121094 724.871094 154.316406 725.394531 155.585938 C 725.917969 156.851562 726.3125 158.152344 726.578125 159.496094 C 726.847656 160.835938 726.980469 162.199219 726.980469 163.566406 C 726.980469 164.933594 726.847656 166.289062 726.578125 167.636719 C 726.3125 168.980469 725.917969 170.28125 725.394531 171.546875 C 724.871094 172.816406 724.226562 174.015625 723.46875 175.15625 C 722.707031 176.292969 721.839844 177.34375 720.871094 178.316406 C 719.90625 179.28125 718.847656 180.144531 717.710938 180.910156 C 716.574219 181.671875 715.371094 182.316406 714.105469 182.839844 C 712.835938 183.359375 711.535156 183.757812 710.191406 184.023438 C 708.851562 184.289062 707.496094 184.425781 706.121094 184.425781 C 704.753906 184.425781 703.398438 184.289062 702.054688 184.023438 C 700.710938 183.757812 699.40625 183.359375 698.140625 182.839844 C 696.875 182.316406 695.671875 181.671875 694.53125 180.910156 C 693.394531 180.144531 692.339844 179.28125 691.367188 178.316406 C 690.402344 177.34375 689.539062 176.292969 688.78125 175.15625 C 688.015625 174.015625 687.375 172.816406 686.847656 171.546875 C 686.324219 170.28125 685.929688 168.980469 685.660156 167.636719 C 685.394531 166.289062 685.261719 164.933594 685.261719 163.566406 C 685.261719 162.199219 685.394531 160.835938 685.660156 159.496094 C 685.929688 158.152344 686.324219 156.851562 686.847656 155.585938 C 687.375 154.316406 688.015625 153.121094 688.78125 151.976562 C 689.539062 150.839844 690.402344 149.78125 691.367188 148.816406 C 692.339844 147.851562 693.394531 146.980469 694.53125 146.222656 C 695.671875 145.460938 696.875 144.816406 698.140625 144.292969 C 699.40625 143.773438 700.710938 143.378906 702.054688 143.109375 C 703.398438 142.84375 704.753906 142.707031 706.121094 142.707031 C 707.496094 142.707031 708.851562 142.84375 710.191406 143.109375 C 711.535156 143.378906 712.835938 143.773438 714.105469 144.292969 C 715.371094 144.816406 716.574219 145.460938 717.710938 146.222656 C 718.847656 146.980469 719.90625 147.851562 720.871094 148.816406 Z M 720.871094 148.816406 " fill-opacity="1" fill-rule="nonzero"/><path fill="#ffffff" d="M 352.09375 197.40625 C 330.195312 197.40625 328.292969 217.503906 328.140625 221.953125 C 328.109375 217.457031 326.785156 196.960938 305.140625 197.359375 C 292.144531 197.59375 288.152344 210.582031 288.152344 210.582031 L 289.257812 194.78125 L 273.164062 196.191406 L 273.164062 275.015625 L 295.105469 275.015625 L 295.105469 242.09375 C 295.105469 242.09375 295.167969 230.054688 305.621094 229.679688 C 310.734375 229.496094 314.761719 233.632812 314.761719 242.0625 C 314.761719 246.945312 314.882812 263.917969 314.964844 275.015625 L 338.40625 275.015625 L 338.40625 242.09375 C 338.40625 242.09375 338.46875 230.054688 348.921875 229.679688 C 354.035156 229.496094 358.0625 233.632812 358.0625 242.0625 C 358.0625 246.945312 358.179688 263.917969 358.261719 275.015625 L 375.757812 275.015625 C 375.757812 275.015625 392.289062 197.40625 352.09375 197.40625 Z M 352.09375 197.40625 " fill-opacity="1" fill-rule="nonzero"/><path fill="#ffffff" d="M 527.132812 198.289062 C 505.238281 198.289062 503.335938 218.386719 503.183594 222.839844 C 503.152344 218.335938 501.824219 197.84375 480.183594 198.246094 C 467.191406 198.480469 463.195312 211.464844 463.195312 211.464844 L 464.300781 195.667969 L 448.207031 197.078125 L 448.207031 275.898438 L 470.148438 275.898438 L 470.148438 242.980469 C 470.148438 242.980469 470.210938 230.9375 480.664062 230.566406 C 485.777344 230.375 489.804688 234.515625 489.804688 242.945312 C 489.804688 247.832031 489.921875 264.804688 490.007812 275.898438 L 513.445312 275.898438 L 513.445312 242.980469 C 513.445312 242.980469 513.503906 230.9375 523.960938 230.566406 C 529.070312 230.375 533.101562 234.515625 533.101562 242.945312 C 533.101562 247.832031 533.222656 264.804688 533.300781 275.898438 L 550.800781 275.898438 C 550.800781 275.902344 567.332031 198.289062 527.132812 198.289062 Z M 527.132812 198.289062 " fill-opacity="1" fill-rule="nonzero"/><path fill="#ffffff" d="M 406.738281 255.839844 L 406.738281 245.265625 L 439.972656 241.417969 L 438.835938 224.5 L 406.738281 226.960938 L 406.738281 216.390625 L 438.039062 212.765625 L 436.949219 196.554688 L 385.09375 200.394531 L 385.09375 275.015625 L 442.238281 275.015625 L 440.769531 253.226562 Z M 406.738281 255.839844 " fill-opacity="1" fill-rule="nonzero"/><path fill="#ffffff" d="M 581.78125 255.839844 L 581.78125 245.265625 L 615.015625 241.417969 L 613.875 224.5 L 581.78125 226.960938 L 581.78125 216.390625 L 613.082031 212.765625 L 611.996094 196.554688 L 560.136719 200.394531 L 560.136719 275.015625 L 617.28125 275.015625 L 615.8125 253.226562 Z M 581.78125 255.839844 " fill-opacity="1" fill-rule="nonzero"/><g clip-path="url(#34106a4bf3)"><g clip-path="url(#ca232534bb)"><g clip-path="url(#1284c305f5)"><g clip-path="url(#d320d2dd42)"><g clip-path="url(#78f409ed3a)"><path fill="url(#b04051d363)" d="M 27.5625 90.367188 L 257.066406 110.503906 L 241.273438 290.480469 L 11.769531 270.339844 Z M 27.5625 90.367188 " fill-rule="nonzero"/></g></g></g></g></g><g clip-path="url(#0dafdce0a9)"><g clip-path="url(#8c630b9c57)"><g clip-path="url(#0da77243e6)"><path stroke-linecap="round" transform="matrix(0.201886, 0, 0, 0.201886, -50.60982, -191.143036)" fill="none" stroke-linejoin="round" d="M 1254.306782 1621.750016 C 1240.027376 1533.287354 1147.230586 1474.737919 1047.042558 1490.913507 C 990.13777 1500.084833 943.081516 1531.410522 915.664282 1572.97172 C 897.340979 1574.674413 878.824188 1577.015617 860.191305 1580.034028 C 840.474889 1583.207229 821.145449 1587.076987 802.202985 1591.527208 C 763.099083 1560.607844 708.477453 1545.573835 651.456572 1554.803207 C 551.249195 1570.959446 481.612905 1655.784535 495.892311 1744.2085 C 496.027752 1744.943754 496.143845 1745.659659 496.279287 1746.394913 C 411.918568 1824.8736 367.571144 1920.901639 383.011477 2016.484655 C 414.259771 2209.933845 678.544876 2328.154944 973.323673 2280.556923 C 1268.102469 2232.978252 1481.751794 2037.555486 1450.522849 1844.106296 C 1434.889028 1747.420399 1361.05405 1669.522175 1254.306782 1621.750016 Z M 1254.306782 1621.750016 " stroke="#0d0b50" stroke-width="37.171001" stroke-opacity="1" stroke-miterlimit="10"/></g></g></g><g clip-path="url(#84859e40f1)"><g clip-path="url(#9386799bf1)"><g clip-path="url(#be972bb3d4)"><g clip-path="url(#fba115d86e)"><g clip-path="url(#2efc3868b1)"><path fill="url(#993825e5d8)" d="M 0.359375 113.390625 L 237.417969 75.109375 L 268.476562 267.457031 L 31.421875 305.738281 Z M 0.359375 113.390625 " fill-rule="nonzero"/></g></g></g></g></g><g clip-path="url(#73eca8ce37)"><g clip-path="url(#05e1169d5a)"><g clip-path="url(#c38ca756ef)"><path stroke-linecap="round" transform="matrix(0.201886, 0, 0, 0.201886, -50.60982, -191.143036)" fill="none" stroke-linejoin="round" d="M 1254.306782 1621.750016 C 1240.027376 1533.287354 1147.230586 1474.737919 1047.042558 1490.913507 C 990.13777 1500.084833 943.081516 1531.410522 915.664282 1572.97172 C 897.340979 1574.674413 878.824188 1577.015617 860.191305 1580.034028 C 840.474889 1583.207229 821.145449 1587.076987 802.202985 1591.527208 C 763.099083 1560.607844 708.477453 1545.573835 651.456572 1554.803207 C 551.249195 1570.959446 481.612905 1655.784535 495.892311 1744.2085 C 496.027752 1744.943754 496.143845 1745.659659 496.279287 1746.394913 C 411.918568 1824.8736 367.571144 1920.901639 383.011477 2016.484655 C 414.259771 2209.933845 678.544876 2328.154944 973.323673 2280.556923 C 1268.102469 2232.978252 1481.751794 2037.555486 1450.522849 1844.106296 C 1434.889028 1747.420399 1361.05405 1669.522175 1254.306782 1621.750016 Z M 1254.306782 1621.750016 " stroke="#0d0b50" stroke-width="37.171001" stroke-opacity="1" stroke-miterlimit="10"/><path stroke-linecap="round" transform="matrix(0.201886, 0, 0, 0.201886, -50.60982, -191.143036)" fill="none" stroke-linejoin="round" d="M 1254.306782 1621.750016 C 1240.027376 1533.287354 1147.230586 1474.737919 1047.042558 1490.913507 C 990.13777 1500.084833 943.081516 1531.410522 915.664282 1572.97172 C 897.340979 1574.674413 878.824188 1577.015617 860.191305 1580.034028 C 840.474889 1583.207229 821.145449 1587.076987 802.202985 1591.527208 C 763.099083 1560.607844 708.477453 1545.573835 651.456572 1554.803207 C 551.249195 1570.959446 481.612905 1655.784535 495.892311 1744.2085 C 496.027752 1744.943754 496.143845 1745.659659 496.279287 1746.394913 C 411.918568 1824.8736 367.571144 1920.901639 383.011477 2016.484655 C 414.259771 2209.933845 678.544876 2328.154944 973.323673 2280.556923 C 1268.102469 2232.978252 1481.751794 2037.555486 1450.522849 1844.106296 C 1434.889028 1747.420399 1361.05405 1669.522175 1254.306782 1621.750016 Z M 1254.306782 1621.750016 " stroke="#0d0b50" stroke-width="37.171001" stroke-opacity="1" stroke-miterlimit="10"/></g></g></g><g clip-path="url(#f70acd2b4a)"><g clip-path="url(#0113fdfd64)"><g clip-path="url(#6e5dfe0674)"><path fill="#0d0b50" d="M 58.886719 165.632812 C 56.246094 149.28125 66.921875 133.949219 82.738281 131.398438 C 98.550781 128.839844 113.511719 140.03125 116.152344 156.386719 C 118.792969 172.738281 108.113281 188.070312 92.300781 190.625 C 76.488281 193.179688 61.527344 181.988281 58.886719 165.632812 " fill-opacity="1" fill-rule="nonzero"/></g></g></g><g clip-path="url(#d7419a8b61)"><g clip-path="url(#ea9d3c237c)"><g clip-path="url(#d44f293f07)"><path fill="#0d0b50" d="M 138.355469 152.796875 C 135.714844 136.445312 146.394531 121.113281 162.207031 118.5625 C 178.023438 116.007812 192.980469 127.199219 195.625 143.554688 C 198.265625 159.90625 187.585938 175.238281 171.773438 177.789062 C 155.960938 180.34375 140.996094 169.15625 138.355469 152.796875 " fill-opacity="1" fill-rule="nonzero"/></g></g></g><g clip-path="url(#30ff844e85)"><g clip-path="url(#fc4ecdaf08)"><g clip-path="url(#7caacac039)"><path stroke-linecap="round" transform="matrix(0.201886, 0, 0, 0.201886, -50.60982, -191.143036)" fill="none" stroke-linejoin="round" d="M 979.689424 1671.244218 C 979.689424 1671.244218 979.844214 1618.441373 1020.999088 1595.377617 " stroke="#f5f9ff" stroke-width="43.929001" stroke-opacity="1" stroke-miterlimit="10"/></g></g></g><g clip-path="url(#d60497d672)"><g clip-path="url(#fe6f84bb00)"><g clip-path="url(#f6f43bb13e)"><path stroke-linecap="round" transform="matrix(0.201886, 0, 0, 0.201886, -50.60982, -191.143036)" fill="none" stroke-linejoin="round" d="M 585.167622 1734.959779 C 585.167622 1734.959779 585.322412 1682.156935 626.457937 1659.093178 " stroke="#f5f9ff" stroke-width="43.929001" stroke-opacity="1" stroke-miterlimit="10"/></g></g></g><g clip-path="url(#815c4c3d67)"><g clip-path="url(#fe8b4e06db)"><g clip-path="url(#ce2fac4a23)"><path stroke-linecap="round" transform="matrix(0.201886, 0, 0, 0.201886, -50.60982, -191.143036)" fill="none" stroke-linejoin="round" d="M 637.75763 2060.561196 C 637.75763 2060.561196 964.307137 2183.135772 1215.280276 1961.824327 " stroke="#0d0b50" stroke-width="37.171001" stroke-opacity="1" stroke-miterlimit="10"/></g></g></g><g clip-path="url(#6a13fbc8aa)"><g clip-path="url(#a70f9a111e)"><g clip-path="url(#dbc7e9b294)"><path fill="#0d0b50" d="M 72.457031 221.96875 C 74.914062 214.503906 79.367188 209.265625 82.40625 210.265625 C 85.453125 211.261719 85.933594 218.125 83.480469 225.589844 C 81.027344 233.050781 76.574219 238.292969 73.527344 237.292969 C 70.484375 236.289062 70.003906 229.433594 72.457031 221.96875 " fill-opacity="1" fill-rule="nonzero"/></g></g></g><g clip-path="url(#0188878163)"><g clip-path="url(#aee26bd51e)"><g clip-path="url(#c2622cca12)"><path fill="#0d0b50" d="M 199.765625 201.410156 C 195.089844 195.097656 189.210938 191.527344 186.636719 193.433594 C 184.0625 195.34375 185.769531 202.003906 190.445312 208.316406 C 195.121094 214.628906 200.996094 218.203125 203.570312 216.292969 C 206.144531 214.386719 204.445312 207.71875 199.765625 201.410156 " fill-opacity="1" fill-rule="nonzero"/></g></g></g><g clip-path="url(#8dc3497995)"><path stroke-linecap="butt" transform="matrix(0.201886, 0, 0, 0.201886, -50.60982, -191.143036)" fill="none" stroke-linejoin="miter" d="M 1122.696322 1471.719508 C 1111.512722 1419.322988 1105.94027 1372.924593 1015.891008 1357.058586 C 825.1313 1323.372345 626.709471 1409.126177 570.307752 1448.017242 C 537.821136 1470.42314 463.134811 1509.585088 492.719109 1562.658815 C 513.693196 1600.311558 503.670524 1657.719414 548.346877 1636.319654 C 638.144605 1593.307297 687.387273 1557.299201 840.126611 1534.061306 C 989.170331 1511.384525 1133.241411 1521.097617 1122.696322 1471.719508 Z M 1122.696322 1471.719508 " stroke="#0d0b50" stroke-width="25" stroke-opacity="1" stroke-miterlimit="10"/></g><path stroke-linecap="round" transform="matrix(0.201886, 0, 0, 0.201886, -50.60982, -191.143021)" fill-opacity="1" fill="#ff2424" fill-rule="nonzero" stroke-linejoin="round" d="M 1025.217197 1399.800089 C 1025.217197 1399.800089 923.906932 1115.624409 645.206959 1085.478994 C 438.136208 1063.092444 388.138934 1140.506953 360.566908 1224.364609 C 330.131261 1316.929221 325.874527 1422.128593 371.460277 1532.416697 C 371.460277 1532.416697 403.792105 1585.896752 451.989941 1544.470993 C 491.654961 1510.397773 624.058732 1495.441159 707.335924 1448.114018 C 774.031204 1410.190389 996.890568 1388.442349 1025.217197 1399.800089 Z M 1025.217197 1399.800089 " stroke="#0d0b50" stroke-width="25" stroke-opacity="1" stroke-miterlimit="10"/><path fill="#d10808" d="M 124.683594 80.652344 C 124.683594 80.652344 100.0625 29.160156 61.476562 27.316406 C 61.476562 27.316406 100.4375 24.183594 129.421875 51.949219 C 129.421875 51.949219 144.871094 67.636719 152.003906 82.476562 C 152 82.480469 131.835938 80.476562 124.683594 80.652344 Z M 124.683594 80.652344 " fill-opacity="1" fill-rule="nonzero"/><path stroke-linecap="round" transform="matrix(0.201886, 0, 0, 0.201886, -50.60982, -191.143021)" fill="none" stroke-linejoin="round" d="M 1025.217197 1399.800089 C 1025.217197 1399.800089 923.906932 1115.624409 645.206959 1085.478994 C 438.136208 1063.092444 388.138934 1140.506953 360.566908 1224.364609 C 330.131261 1316.929221 325.874527 1422.128593 371.460277 1532.416697 C 371.460277 1532.416697 403.792105 1585.896752 451.989941 1544.470993 C 491.654961 1510.397773 624.058732 1495.441159 707.335924 1448.114018 C 774.031204 1410.190389 996.890568 1388.442349 1025.217197 1399.800089 Z M 1025.217197 1399.800089 " stroke="#0d0b50" stroke-width="25" stroke-opacity="1" stroke-miterlimit="10"/><path stroke-linecap="round" transform="matrix(0.201886, 0, 0, 0.201886, -50.60982, -191.143021)" fill-opacity="1" fill="#ffffff" fill-rule="nonzero" stroke-linejoin="round" d="M 458.820064 1587.773585 C 458.820064 1590.908089 458.684623 1594.061942 458.375042 1597.177097 C 458.065461 1600.311601 457.601091 1603.407407 456.981929 1606.503214 C 456.382117 1609.579671 455.608165 1612.63678 454.698772 1615.635843 C 453.77003 1618.654254 452.725195 1621.614619 451.52557 1624.497589 C 450.306597 1627.419256 448.97153 1630.263528 447.501022 1633.011056 C 446.011165 1635.797282 444.405216 1638.486764 442.663825 1641.118199 C 440.903085 1643.710937 439.045601 1646.245629 437.033327 1648.683576 C 435.05975 1651.102175 432.931383 1653.443379 430.706272 1655.649141 C 428.481161 1657.874252 426.159307 1659.98327 423.740708 1661.976195 C 421.30276 1663.988469 418.768069 1665.826604 416.175331 1667.606693 C 413.543895 1669.348084 410.854414 1670.954034 408.068188 1672.424542 C 405.32066 1673.914399 402.476388 1675.249465 399.55472 1676.468439 C 396.67175 1677.648715 393.711386 1678.712899 390.692974 1679.64164 C 387.693912 1680.551034 384.656152 1681.324985 381.560345 1681.924798 C 378.464539 1682.52461 375.368733 1682.988981 372.234229 1683.298562 C 369.119073 1683.608142 365.965221 1683.762933 362.830717 1683.762933 C 359.676864 1683.762933 356.54236 1683.608142 353.407856 1683.298562 C 350.292701 1682.988981 347.196894 1682.52461 344.101088 1681.924798 C 341.02463 1681.324985 337.967521 1680.551034 334.94911 1679.64164 C 331.950048 1678.712899 328.989683 1677.648715 326.087364 1676.468439 C 323.204394 1675.249465 320.360122 1673.914399 317.573897 1672.424542 C 314.787671 1670.954034 312.098189 1669.348084 309.505451 1667.606693 C 306.874016 1665.826604 304.358673 1663.988469 301.940074 1661.976195 C 299.502127 1659.98327 297.160923 1657.874252 294.935812 1655.649141 C 292.710701 1653.443379 290.621032 1651.102175 288.608758 1648.683576 C 286.635181 1646.245629 284.758349 1643.710937 283.016957 1641.118199 C 281.256218 1638.486764 279.650268 1635.797282 278.160411 1633.011056 C 276.670554 1630.263528 275.335488 1627.419256 274.135863 1624.497589 C 272.936238 1621.614619 271.872054 1618.654254 270.962661 1615.635843 C 270.053268 1612.63678 269.279316 1609.579671 268.679504 1606.503214 C 268.060343 1603.407407 267.595972 1600.311601 267.30574 1597.177097 C 266.996159 1594.061942 266.841369 1590.908089 266.841369 1587.773585 C 266.841369 1584.619732 266.996159 1581.485228 267.30574 1578.350724 C 267.595972 1575.21622 268.060343 1572.139763 268.679504 1569.043956 C 269.279316 1565.967499 270.053268 1562.91039 270.962661 1559.891979 C 271.872054 1556.892916 272.936238 1553.932551 274.135863 1551.030233 C 275.335488 1548.127914 276.670554 1545.283642 278.160411 1542.516765 C 279.650268 1539.730539 281.256218 1537.041057 283.016957 1534.428971 C 284.758349 1531.816884 286.635181 1529.301541 288.608758 1526.863594 C 290.621032 1524.444995 292.710701 1522.103791 294.935812 1519.878681 C 297.160923 1517.672918 299.502127 1515.5639 301.940074 1513.570975 C 304.358673 1511.558701 306.874016 1509.681868 309.505451 1507.940477 C 312.098189 1506.199086 314.787671 1504.593136 317.573897 1503.122628 C 320.360122 1501.613423 323.204394 1500.278356 326.087364 1499.078731 C 328.989683 1497.859757 331.950048 1496.814923 334.94911 1495.90553 C 337.967521 1494.996136 341.02463 1494.222185 344.101088 1493.603024 C 347.196894 1492.983862 350.292701 1492.558189 353.407856 1492.248608 C 356.54236 1491.939028 359.676864 1491.784237 362.830717 1491.784237 C 365.965221 1491.784237 369.119073 1491.939028 372.234229 1492.248608 C 375.368733 1492.558189 378.464539 1492.983862 381.560345 1493.603024 C 384.656152 1494.222185 387.693912 1494.996136 390.692974 1495.90553 C 393.711386 1496.814923 396.67175 1497.859757 399.55472 1499.078731 C 402.476388 1500.278356 405.32066 1501.613423 408.068188 1503.122628 C 410.854414 1504.593136 413.543895 1506.199086 416.175331 1507.940477 C 418.768069 1509.681868 421.30276 1511.558701 423.740708 1513.570975 C 426.159307 1515.5639 428.481161 1517.672918 430.706272 1519.878681 C 432.931383 1522.103791 435.05975 1524.444995 437.033327 1526.863594 C 439.045601 1529.301541 440.903085 1531.816884 442.663825 1534.428971 C 444.405216 1537.041057 446.011165 1539.730539 447.501022 1542.516765 C 448.97153 1545.283642 450.306597 1548.127914 451.52557 1551.030233 C 452.725195 1553.932551 453.77003 1556.892916 454.698772 1559.891979 C 455.608165 1562.91039 456.382117 1565.967499 456.981929 1569.043956 C 457.601091 1572.139763 458.065461 1575.21622 458.375042 1578.350724 C 458.684623 1581.485228 458.820064 1584.619732 458.820064 1587.773585 Z M 458.820064 1587.773585 " stroke="#0d0b50" stroke-width="25" stroke-opacity="1" stroke-miterlimit="10"/><path stroke-linecap="round" transform="matrix(0.201886, 0, 0, 0.201886, -50.60982, -191.143021)" fill-opacity="1" fill="#ff4040" fill-rule="nonzero" stroke-linejoin="round" d="M 507.211388 1502.155189 C 507.211388 1502.155189 457.426951 1414.292333 447.887998 1362.437575 " stroke="#0d0b50" stroke-width="25" stroke-opacity="1" stroke-miterlimit="10"/><path stroke-linecap="round" transform="matrix(0.201886, 0, 0, 0.201886, -50.60982, -191.143021)" fill-opacity="1" fill="#ff4040" fill-rule="nonzero" stroke-linejoin="round" d="M 920.695033 1545.515827 C 920.695033 1545.515827 826.350332 1559.505003 784.731085 1566.838194 " stroke="#0d0b50" stroke-width="25" stroke-opacity="1" stroke-miterlimit="10"/><path fill="#ffffff" d="M 176.046875 105.976562 C 173.789062 95.398438 172.664062 86.03125 154.484375 82.828125 C 115.972656 76.027344 75.914062 93.339844 64.527344 101.191406 C 57.96875 105.714844 42.890625 113.621094 48.863281 124.335938 C 53.097656 131.933594 51.074219 143.527344 60.09375 139.207031 C 78.222656 130.523438 88.164062 123.25 119 118.5625 C 149.089844 113.984375 178.175781 115.945312 176.046875 105.976562 Z M 176.046875 105.976562 " fill-opacity="1" fill-rule="nonzero"/><g clip-path="url(#e325851b5b)"><path stroke-linecap="butt" transform="matrix(0.201886, 0, 0, 0.201886, -50.60982, -191.143036)" fill="none" stroke-linejoin="miter" d="M 1122.696322 1471.719508 C 1111.512722 1419.322988 1105.94027 1372.924593 1015.891008 1357.058586 C 825.1313 1323.372345 626.709471 1409.126177 570.307752 1448.017242 C 537.821136 1470.42314 463.134811 1509.585088 492.719109 1562.658815 C 513.693196 1600.311558 503.670524 1657.719414 548.346877 1636.319654 C 638.144605 1593.307297 687.387273 1557.299201 840.126611 1534.061306 C 989.170331 1511.384525 1133.241411 1521.097617 1122.696322 1471.719508 Z M 1122.696322 1471.719508 " stroke="#0d0b50" stroke-width="25" stroke-opacity="1" stroke-miterlimit="10"/></g><path fill="#cfcfcf" d="M 126.617188 83.382812 C 126.617188 83.382812 136.042969 83.65625 136.515625 90.683594 C 136.988281 97.703125 140.207031 105.707031 140.207031 105.707031 C 140.207031 105.707031 143.898438 109.90625 137.59375 115.671875 C 137.59375 115.671875 171.359375 116.457031 175.117188 109.90625 C 175.117188 109.90625 179.738281 89.050781 161.984375 85.160156 C 161.984375 85.160156 138.40625 82.527344 126.617188 83.382812 Z M 126.617188 83.382812 " fill-opacity="1" fill-rule="nonzero"/><g clip-path="url(#c204dbdaf8)"><path stroke-linecap="butt" transform="matrix(0.201886, 0, 0, 0.201886, -50.60982, -191.143036)" fill="none" stroke-linejoin="miter" d="M 1122.696322 1471.719508 C 1111.512722 1419.322988 1105.94027 1372.924593 1015.891008 1357.058586 C 825.1313 1323.372345 626.709471 1409.126177 570.307752 1448.017242 C 537.821136 1470.42314 463.134811 1509.585088 492.719109 1562.658815 C 513.693196 1600.311558 503.670524 1657.719414 548.346877 1636.319654 C 638.144605 1593.307297 687.387273 1557.299201 840.126611 1534.061306 C 989.170331 1511.384525 1133.241411 1521.097617 1122.696322 1471.719508 Z M 1122.696322 1471.719508 " stroke="#0d0b50" stroke-width="25" stroke-opacity="1" stroke-miterlimit="10"/></g></svg>